HIERARCHY
ROOT Hips
{
    OFFSET 0.000000 0.000000 0.000000
    CHANNELS 6 Xposition Yposition Zposition Zrotation Xrotation Yrotation
    JOINT Spine
    {
        OFFSET -0.000000 7.236184 0.000000
        CHANNELS 3 Zrotation Xrotation Yrotation
        JOINT Spine1
        {
            OFFSET -0.000000 20.420147 0.000000
            CHANNELS 3 Zrotation Xrotation Yrotation
            JOINT Neck
            {
                OFFSET -0.000000 20.336288 1.848754
                CHANNELS 3 Zrotation Xrotation Yrotation
                JOINT Head
                {
                    OFFSET -0.000000 12.354461 -1.764923
                    CHANNELS 3 Zrotation Xrotation Yrotation
                    End Site
                    {
                        OFFSET -0.000000 22.061537 0.000000
                    }
                }
            }
            JOINT LeftShoulder
            {
                OFFSET 3.573296 18.396038 -0.314103
                CHANNELS 3 Zrotation Xrotation Yrotation
                JOINT LeftArm
                {
                    OFFSET 10.880760 0.000000 0.000000
                    CHANNELS 3 Zrotation Xrotation Yrotation
                    JOINT LeftForeArm
                    {
                        OFFSET 27.185530 0.000000 0.000000
                        CHANNELS 3 Zrotation Xrotation Yrotation
                        JOINT LeftHand
                        {
                            OFFSET 27.825975 0.000000 0.000000
                            CHANNELS 3 Zrotation Xrotation Yrotation
                            End Site
                            {
                                OFFSET 13.236923 0.000000 0.000000
                            }
                        }
                    }
                }
            }
            JOINT RightShoulder
            {
                OFFSET -3.474926 18.396038 -0.314103
                CHANNELS 3 Zrotation Xrotation Yrotation
                JOINT RightArm
                {
                    OFFSET -10.880760 0.000000 0.000000
                    CHANNELS 3 Zrotation Xrotation Yrotation
                    JOINT RightForeArm
                    {
                        OFFSET -27.185530 0.000000 0.000000
                        CHANNELS 3 Zrotation Xrotation Yrotation
                        JOINT RightHand
                        {
                            OFFSET -27.825975 0.000000 0.000000
                            CHANNELS 3 Zrotation Xrotation Yrotation
                            End Site
                            {
                                OFFSET -13.236923 0.000000 0.000000
                            }
                        }
                    }
                }
            }
        }
    }
    JOINT LeftUpLeg
    {
        OFFSET 8.824615 0.000000 0.000000
        CHANNELS 3 Zrotation Xrotation Yrotation
        JOINT LeftLeg
        {
            OFFSET -0.000000 -35.111282 0.000000
            CHANNELS 3 Zrotation Xrotation Yrotation
            JOINT LeftFoot
            {
                OFFSET -0.000000 -42.324711 0.000000
                CHANNELS 3 Zrotation Xrotation Yrotation
                JOINT LeftToeBase
                {
                    OFFSET -0.000000 -5.735999 13.236923
                    CHANNELS 3 Zrotation Xrotation Yrotation
                    End Site
                    {
                        OFFSET -0.000000 0.000000 3.529846
                    }
                }
            }
        }
    }
    JOINT RightUpLeg
    {
        OFFSET -8.824615 0.000000 0.000000
        CHANNELS 3 Zrotation Xrotation Yrotation
        JOINT RightLeg
        {
            OFFSET -0.000000 -35.111282 0.000000
            CHANNELS 3 Zrotation Xrotation Yrotation
            JOINT RightFoot
            {
                OFFSET -0.000000 -42.324711 0.000000
                CHANNELS 3 Zrotation Xrotation Yrotation
                JOINT RightToeBase
                {
                    OFFSET -0.000000 -5.735999 13.236923
                    CHANNELS 3 Zrotation Xrotation Yrotation
                    End Site
                    {
                        OFFSET -0.000000 0.000000 3.529846
                    }
                }
            }
        }
    }
}
MOTION
Frames:    14
Frame Time:    0.008333
-5.348701    83.218391    98.826691    0.377155    -5.873710    -175.971680    -1.518688    -12.818005    0.397184    -1.806902    8.440451    0.701096    1.806386    9.060068    -3.874627    10.187153    -9.228102    -1.898181    -1.643065    17.758455    -1.496988    -47.969711    43.192535    -32.188828    21.721176    -10.601554    -60.959129    14.664117    2.458528    0.984690    8.515860    19.813213    -5.628602    39.280941    46.103783    35.155151    -13.424230    -20.149250    68.562286    -18.226963    -10.041276    -7.916750    4.483480    -8.741693    -1.976651    0.444949    15.856895    1.802030    -5.136747    -10.418633    -9.916367    -0.194595    -0.023241    0.215711    -3.245325    -4.986624    0.592759    0.959968    11.196822    5.555426    -0.791375    -7.958656    -13.513878    -1.875051    -1.022087    2.030852    
-5.351127    83.223618    98.837242    0.387434    -5.914020    -176.004669    -1.515642    -12.811009    0.406598    -1.764835    8.385334    0.706220    1.803307    9.040956    -3.804296    10.009161    -9.328724    -1.856053    -1.652169    17.766779    -1.472608    -48.107872    43.097168    -32.114433    21.725927    -10.716105    -61.068577    14.615785    2.383327    1.063769    8.515758    19.813683    -5.637531    39.309418    46.008511    35.171711    -13.571785    -20.143581    68.566704    -18.182653    -9.932313    -7.943399    4.490996    -8.775580    -1.962730    0.444309    15.841192    1.833924    -5.182563    -10.401061    -9.935604    -0.202306    -0.027508    0.224261    -3.247622    -4.987990    0.601104    0.970955    11.098105    5.500940    -0.777841    -7.918625    -13.433552    -1.877581    -1.017176    2.033579    
-5.353623    83.228767    98.847603    0.397227    -5.953726    -176.038010    -1.512716    -12.804508    0.416102    -1.722781    8.331370    0.711421    1.800570    9.022239    -3.734743    9.833572    -9.426835    -1.814750    -1.660567    17.774847    -1.449401    -48.242050    43.004185    -32.041382    21.729378    -10.829178    -61.178265    14.570835    2.308615    1.140714    8.515468    19.813917    -5.645900    39.335350    45.914028    35.189293    -13.714880    -20.139450    68.572708    -18.141027    -9.827842    -7.967981    4.498113    -8.808510    -1.949274    0.443519    15.825367    1.866186    -5.227134    -10.383757    -9.954199    -0.209940    -0.031613    0.232725    -3.250199    -4.989850    0.608560    0.981502    11.002403    5.458638    -0.766020    -7.879969    -13.364410    -1.880203    -1.011999    2.036402    
-5.356241    83.233818    98.857712    0.406503    -5.992591    -176.072449    -1.509806    -12.798367    0.425789    -1.679908    8.278397    0.716799    1.797991    9.003388    -3.665594    9.660205    -9.520985    -1.773976    -1.668189    17.782133    -1.427890    -48.371155    42.915344    -31.968884    21.731121    -10.941670    -61.289490    14.531086    2.233303    1.213602    8.514651    19.813503    -5.653351    39.356747    45.820473    35.209045    -13.852428    -20.138384    68.581528    -18.104486    -9.729868    -7.989870    4.504875    -8.839792    -1.936358    0.442445    15.809009    1.899507    -5.269465    -10.366849    -9.971827    -0.217518    -0.035732    0.241127    -3.252895    -4.992486    0.614455    0.991050    10.910866    5.433355    -0.755512    -7.843297    -13.309779    -1.882985    -1.006971    2.039402    
-5.358979    83.238670    98.867393    0.415113    -6.029908    -176.108154    -1.506844    -12.792678    0.435739    -1.636229    8.227192    0.722300    1.795480    8.984012    -3.597445    9.491301    -9.608331    -1.734073    -1.674485    17.788080    -1.409440    -48.493507    42.832180    -31.896534    21.730017    -11.052706    -61.402046    14.498665    2.157246    1.279730    8.513289    19.812685    -5.659283    39.371239    45.728161    35.231968    -13.981791    -20.141243    68.594154    -18.076035    -9.640925    -8.007964    4.511266    -8.868522    -1.924201    0.440849    15.791988    1.934096    -5.308451    -10.350590    -9.988073    -0.225003    -0.039142    0.249426    -3.255683    -4.996063    0.618876    0.999510    10.825083    5.423156    -0.746627    -7.809036    -13.267740    -1.885916    -1.001866    2.042561    
-5.361941    83.243439    98.876869    0.422809    -6.066571    -176.146164    -1.504117    -12.787584    0.445984    -1.590694    8.176743    0.728244    1.793171    8.963640    -3.529093    9.324029    -9.689544    -1.694339    -1.679052    17.792448    -1.394333    -48.610306    42.754700    -31.822838    21.724939    -11.165336    -61.518688    14.474349    2.077233    1.338934    8.511086    19.811314    -5.663574    39.377308    45.636604    35.259602    -14.105394    -20.149563    68.610931    -18.057405    -9.560906    -8.021516    4.516979    -8.895385    -1.912776    0.438658    15.774137    1.970981    -5.343354    -10.335133    -10.002803    -0.232350    -0.041063    0.257571    -3.258922    -5.001702    0.621987    1.006857    10.744407    5.422921    -0.738227    -7.776585    -13.232312    -1.889061    -0.996762    2.045954    
-5.365067    83.247932    98.885887    0.429161    -6.101593    -176.185745    -1.502000    -12.783207    0.456387    -1.543919    8.128262    0.734389    1.791059    8.942401    -3.462319    9.162643    -9.761399    -1.655897    -1.681479    17.794601    -1.383850    -48.718803    42.685387    -31.748434    21.714394    -11.277853    -61.637726    14.459585    1.993470    1.388647    8.507678    19.809589    -5.665929    39.373661    45.548210    35.292007    -14.219655    -20.163683    68.632095    -18.050926    -9.492459    -8.029242    4.521734    -8.919557    -1.902485    0.435635    15.755782    2.009285    -5.372170    -10.321080    -10.015072    -0.239473    -0.041444    0.265467    -3.262846    -5.009704    0.624524    1.013258    10.671515    5.429198    -0.730695    -7.746807    -13.201634    -1.892334    -0.991722    2.049485    
-5.368266    83.252167    98.894409    0.434961    -6.134312    -176.227386    -1.499819    -12.778208    0.467107    -1.495002    8.080635    0.740742    1.788522    8.920425    -3.396360    9.006127    -9.824726    -1.618025    -1.682161    17.794840    -1.378011    -48.819859    42.623398    -31.671955    21.696785    -11.393044    -61.761810    14.455052    1.902741    1.428794    8.503018    19.807741    -5.666269    39.359505    45.462654    35.330185    -14.327191    -20.184807    68.657463    -18.056307    -9.435325    -8.030855    4.526567    -8.940227    -1.892577    0.431822    15.736885    2.049064    -5.394913    -10.308575    -10.025153    -0.246408    -0.039673    0.273154    -3.266459    -5.018989    0.627756    1.018775    10.605179    5.439063    -0.723948    -7.719142    -13.173412    -1.895757    -0.986659    2.053176    
-5.371521    83.256111    98.902451    0.440297    -6.164649    -176.271378    -1.497594    -12.772164    0.478207    -1.443307    8.033444    0.747229    1.785393    8.896879    -3.330859    8.853461    -9.878777    -1.580619    -1.681262    17.793415    -1.376875    -48.913338    42.567780    -31.593168    21.669737    -11.512241    -61.893120    14.462378    1.802726    1.459009    8.496697    19.805544    -5.664432    39.334854    45.379631    35.374050    -14.428869    -20.213203    68.687492    -18.073076    -9.389040    -8.026461    4.531759    -8.957324    -1.882919    0.426883    15.717432    2.090209    -5.411097    -10.297687    -10.032651    -0.253428    -0.034981    0.280934    -3.269508    -5.029522    0.632206    1.023156    10.545320    5.450956    -0.716846    -7.693632    -13.146135    -1.899112    -0.982073    2.056797    
-5.375372    83.259872    98.910606    0.441355    -6.196650    -176.317581    -1.499279    -12.768696    0.489181    -1.389079    7.986247    0.754009    1.781278    8.872690    -3.266521    8.706136    -9.923534    -1.543928    -1.678807    17.790937    -1.380596    -48.998730    42.518089    -31.512506    21.631531    -11.634709    -62.032227    14.484264    1.693031    1.478087    8.487896    19.803490    -5.660522    39.300648    45.299866    35.423355    -14.524556    -20.248846    68.722382    -18.098997    -9.353663    -8.017114    4.532090    -8.975438    -1.875029    0.421698    15.697928    2.134806    -5.420528    -10.288028    -10.038329    -0.260413    -0.028295    0.288674    -3.277146    -5.046463    0.637274    1.027594    10.493797    5.464830    -0.710286    -7.670502    -13.120123    -1.902393    -0.977480    2.060338    
-5.379145    83.263222    98.918045    0.442425    -6.224812    -176.365280    -1.500815    -12.762627    0.500316    -1.331693    7.938947    0.760676    1.775571    8.847928    -3.203657    8.565005    -9.958822    -1.508081    -1.675571    17.788103    -1.388503    -49.074844    42.473732    -31.431164    21.580801    -11.760082    -62.179596    14.523477    1.573295    1.486033    8.476587    19.801615    -5.654857    39.257809    45.223717    35.477249    -14.615117    -20.291513    68.761955    -18.130589    -9.328459    -8.003554    4.533487    -8.988846    -1.866935    0.415440    15.678395    2.179361    -5.423146    -10.280239    -10.041322    -0.267653    -0.018988    0.296694    -3.283293    -5.063256    0.644832    1.030806    10.449232    5.478786    -0.704110    -7.649718    -13.095187    -1.905445    -0.973334    2.063630    
-5.383285    83.266273    98.925247    0.440706    -6.252460    -176.414536    -1.505165    -12.756447    0.511310    -1.270900    7.890627    0.767237    1.768180    8.823100    -3.142118    8.429101    -9.985553    -1.472987    -1.671734    17.785841    -1.399856    -49.141472    42.433689    -31.349983    21.516310    -11.888367    -62.336754    14.583696    1.443226    1.483043    8.462053    19.799911    -5.647620    39.208115    45.150570    35.534821    -14.701876    -20.340378    68.806755    -18.164482    -9.311759    -7.986146    4.531960    -9.001229    -1.859557    0.409016    15.659148    2.225334    -5.419777    -10.273872    -10.042378    -0.275185    -0.007679    0.305037    -3.291736    -5.083760    0.653963    1.033337    10.412414    5.493143    -0.698653    -7.631298    -13.071199    -1.908232    -0.969353    2.066637    
-5.387579    83.268997    98.931953    0.437794    -6.277742    -176.465134    -1.511108    -12.748116    0.522109    -1.205619    7.840635    0.773605    1.758364    8.798336    -3.081728    8.297948    -10.004240    -1.438456    -1.668039    17.785709    -1.413392    -49.196976    42.397350    -31.271320    21.437572    -12.019790    -62.504604    14.668778    1.302357    1.469758    8.443609    19.798677    -5.639178    39.153084    45.079517    35.595390    -14.786912    -20.394712    68.857140    -18.196543    -9.301596    -7.965225    4.529769    -9.010640    -1.852333    0.401872    15.640082    2.271787    -5.411395    -10.268808    -10.041533    -0.283072    0.005276    0.313772    -3.300366    -5.105436    0.665664    1.035019    10.382227    5.507184    -0.694008    -7.614973    -13.048404    -1.910667    -0.965834    2.069264    
-5.392128    83.271393    98.938194    0.433221    -6.301230    -176.516815    -1.519338    -12.737947    0.532704    -1.135358    7.788529    0.779613    1.746046    8.774234    -3.022462    8.170708    -10.015932    -1.404523    -1.665145    17.788328    -1.427949    -49.240025    42.364517    -31.196766    21.344370    -12.153692    -62.683937    14.782566    1.151533    1.447212    8.420843    19.798058    -5.629844    39.094406    45.009624    35.657913    -14.872293    -20.453279    68.913460    -18.222910    -9.295442    -7.940255    4.525985    -9.017850    -1.844988    0.394712    15.621460    2.318321    -5.400186    -10.264681    -10.039468    -0.291032    0.018500    0.322588    -3.309846    -5.128869    0.679431    1.035820    10.358854    5.521305    -0.688824    -7.601005    -13.026831    -1.912696    -0.962840    2.071453    
